<svg xmlns="http://www.w3.org/2000/svg" width="800" height="220" viewBox="0 0 800 220">
<rect x="1" y="1" width="798" height="218" rx="10" fill="#000000" stroke="#39FF14" stroke-width="2"/>
<text x="28" y="38" font-family="Consolas, Menlo, 'Courier New', monospace" font-size="20" fill="#39FF14">&gt; public activity, last 30d</text>
<line x1="24" y1="52" x2="776" y2="52" stroke="#0d3d0d" stroke-width="1"/>
<rect x="40.0" y="178.0" width="21.0" height="4.0" fill="#0d3d0d"/>
<rect x="64.0" y="178.0" width="21.0" height="4.0" fill="#0d3d0d"/>
<rect x="88.0" y="178.0" width="21.0" height="4.0" fill="#0d3d0d"/>
<rect x="112.0" y="178.0" width="21.0" height="4.0" fill="#0d3d0d"/>
<rect x="136.0" y="178.0" width="21.0" height="4.0" fill="#0d3d0d"/>
<rect x="160.0" y="178.0" width="21.0" height="4.0" fill="#0d3d0d"/>
<rect x="184.0" y="178.0" width="21.0" height="4.0" fill="#0d3d0d"/>
<rect x="208.0" y="178.0" width="21.0" height="4.0" fill="#0d3d0d"/>
<rect x="232.0" y="178.0" width="21.0" height="4.0" fill="#0d3d0d"/>
<rect x="256.0" y="178.0" width="21.0" height="4.0" fill="#0d3d0d"/>
<rect x="280.0" y="178.0" width="21.0" height="4.0" fill="#0d3d0d"/>
<rect x="304.0" y="178.0" width="21.0" height="4.0" fill="#0d3d0d"/>
<rect x="328.0" y="178.0" width="21.0" height="4.0" fill="#0d3d0d"/>
<rect x="352.0" y="178.0" width="21.0" height="4.0" fill="#0d3d0d"/>
<rect x="376.0" y="178.0" width="21.0" height="4.0" fill="#0d3d0d"/>
<rect x="400.0" y="178.0" width="21.0" height="4.0" fill="#0d3d0d"/>
<rect x="424.0" y="178.0" width="21.0" height="4.0" fill="#0d3d0d"/>
<rect x="448.0" y="178.0" width="21.0" height="4.0" fill="#0d3d0d"/>
<rect x="472.0" y="178.0" width="21.0" height="4.0" fill="#0d3d0d"/>
<rect x="496.0" y="178.0" width="21.0" height="4.0" fill="#0d3d0d"/>
<rect x="520.0" y="178.0" width="21.0" height="4.0" fill="#0d3d0d"/>
<rect x="544.0" y="178.0" width="21.0" height="4.0" fill="#0d3d0d"/>
<rect x="568.0" y="178.0" width="21.0" height="4.0" fill="#0d3d0d"/>
<rect x="592.0" y="178.0" width="21.0" height="4.0" fill="#0d3d0d"/>
<rect x="616.0" y="178.0" width="21.0" height="4.0" fill="#0d3d0d"/>
<rect x="640.0" y="178.0" width="21.0" height="4.0" fill="#0d3d0d"/>
<rect x="664.0" y="178.0" width="21.0" height="4.0" fill="#0d3d0d"/>
<rect x="688.0" y="178.0" width="21.0" height="4.0" fill="#0d3d0d"/>
<rect x="712.0" y="178.0" width="21.0" height="4.0" fill="#0d3d0d"/>
<rect x="736.0" y="178.0" width="21.0" height="4.0" fill="#0d3d0d"/>
<text x="40" y="210" font-family="Consolas, Menlo, 'Courier New', monospace" font-size="14" fill="#0d3d0d">2026-08-01</text>
<text x="760" y="210" text-anchor="end" font-family="Consolas, Menlo, 'Courier New', monospace" font-size="14" fill="#0d3d0d">2026-08-30</text>
<text x="400.0" y="210" text-anchor="middle" font-family="Consolas, Menlo, 'Courier New', monospace" font-size="14" fill="#39FF14">0 events</text>
</svg>